<?xml version="1.0" encoding="UTF-8"?>
<svg width="172px" height="40px" viewBox="0 0 172 40" version="1.1" xmlns="http://www.w3.org/2000/svg" xmlns:xlink="http://www.w3.org/1999/xlink">
    <title>Logo-ce-broker</title>
    <g id="Symbols" stroke="none" stroke-width="1" fill="none" fill-rule="evenodd">
        <g id="header" transform="translate(-147.000000, -17.000000)" fill-rule="nonzero">
            <g id="Group" transform="translate(146.000000, 16.000000)">
                <g id="CEB-Logo" transform="translate(1.446281, 1.448276)">
                    <g id="Group">
                        <path d="M21.1909575,15.376183 C21.3203674,15.5115464 21.4960989,15.5876241 21.6793643,15.5876241 C21.8626297,15.5876241 22.0383612,15.5115464 22.1677711,15.376183 C22.8946824,14.6179181 23.3911097,14.0754196 23.8292828,13.5954493 C24.1669884,13.2246833 24.4700792,12.8909058 24.8187603,12.5298273 C24.9634926,12.3784725 25.0364032,12.1679431 25.0178194,11.9550442 C24.9992356,11.7421453 24.8910724,11.5488147 24.7225142,11.4272167 C21.5463927,9.14273443 18.3356565,2.62042303 17.4272283,0.672360263 C17.2537083,0.298033145 16.9055627,0.0452404094 16.5087903,0.0054713426 C16.1120179,-0.0342977242 15.7240967,0.144717978 15.485421,0.477730122 C13.4676298,3.28797799 6.40029531,12.7605653 0.330880909,16.6311511 C0.150063045,16.7462478 0.0298824885,16.9415384 0.00484601083,17.1609502 C-0.0201904668,17.3803621 0.0526867267,17.5996233 0.20255277,17.7557787 C1.4613505,19.0688716 4.09798719,22.517612 4.12415938,22.5528392 C4.25435556,22.7231569 4.45144062,22.8228741 4.66026706,22.8240895 L4.66026706,22.8240895 C4.86769558,22.8244553 5.06426921,22.7274274 5.19553048,22.5598846 L16.3119555,8.35981048 C17.0869899,9.8825051 18.7586328,12.8371844 21.1909575,15.376183 Z" id="Path" fill="#6EB76E"></path>
                        <path d="M29.1000234,16.55189 C28.9694856,16.3815366 28.7721377,16.2818435 28.5630714,16.2806407 C28.3545384,16.2806407 28.156837,16.3775189 28.0235867,16.5448445 L16.9122272,30.7449187 C16.1371928,29.2213434 14.4638614,26.2675448 12.0315367,23.7285461 C11.9021268,23.5931827 11.7263953,23.5171051 11.5431299,23.5171051 C11.3598645,23.5171051 11.184133,23.5931827 11.0547231,23.7285461 C10.325279,24.4885724 9.82800743,25.0328323 9.38983438,25.5128025 C9.05212875,25.8826879 8.74988221,26.2129426 8.40373395,26.5740212 C8.25897654,26.7255357 8.18606205,26.9361976 8.20464256,27.1492289 C8.22322307,27.3622602 8.33138638,27.5557368 8.49998005,27.6775124 C11.6761015,29.9619947 14.8868377,36.4843061 15.7952659,38.4314882 C15.968795,38.8069909 16.3184139,39.0600404 16.716358,39.0981625 C16.7535056,39.0981625 16.7906532,39.1034483 16.8269566,39.1034483 C17.1853408,39.1040817 17.5227522,38.9272822 17.736229,38.626999 C19.7557086,35.8167512 26.8221989,26.3459252 32.8933018,22.473578 C33.0741197,22.3584814 33.1943002,22.1631908 33.2193367,21.9437789 C33.2443732,21.7243671 33.171496,21.5051059 33.02163,21.3489505 C31.761988,20.0358576 29.1270398,16.5871171 29.1000234,16.55189 Z" id="Path" fill="#43966A"></path>
                    </g>
                    <path d="M94.4266443,15.9891358 C93.7553112,15.2720316 92.95098,14.705091 92.0627049,14.3228905 C91.1935206,13.9500591 90.2628694,13.7579948 89.323068,13.7574943 C88.0389423,13.7574943 86.9481532,14.0613287 86.0794054,14.661952 C85.3851156,15.1407886 84.7667104,15.7297088 84.2465081,16.4074586 L84.2465081,8.36773659 L80.3257458,8.36773659 L80.3257458,30.6489246 L83.7298185,30.6489246 C84.0129835,30.6484388 84.2422872,30.4088505 84.2422868,30.1134716 L84.2422868,28.4815727 C84.7693653,29.1053037 85.3768321,29.6497606 86.0473234,30.0993807 C86.9152269,30.6885552 88.0161472,30.9879862 89.3188467,30.9879862 C90.2638405,30.9865944 91.1996313,30.7942945 92.0745246,30.4217094 C92.9696642,30.042758 93.7803942,29.4755611 94.4561935,28.755464 C95.1740366,27.9800128 95.7363198,27.062933 96.1101069,26.0579431 C96.5187307,25.0011278 96.7255754,23.7681767 96.7255754,22.4031237 L96.7255754,22.3414761 C96.7255754,20.9755424 96.5136651,19.7452334 96.0949101,18.6848954 C95.7119294,17.6818213 95.1452868,16.7661805 94.4266443,15.9891358 Z M92.7499359,22.4031237 C92.7604133,23.1162501 92.6459677,23.8253784 92.4122302,24.4956179 C92.2098921,25.0744146 91.8984183,25.6050486 91.4962037,26.0561817 C91.1132737,26.4747139 90.6540011,26.8091731 90.1453812,27.0399006 C89.0884536,27.506616 87.8953264,27.506616 86.8383988,27.0399006 C86.3182815,26.8086374 85.8488659,26.4691099 85.4588713,26.0420908 C85.047758,25.5844404 84.7257609,25.0478609 84.5107628,24.4621521 C84.2683306,23.8055139 84.1479901,23.1067242 84.1561719,22.4031237 L84.1561719,22.3414761 C84.147245,21.6430432 84.2673476,20.9493524 84.5099185,20.2983 C84.7302913,19.71514 85.0516818,19.1792727 85.4580271,18.7174805 C85.8442024,18.2828608 86.3132391,17.9372838 86.8350218,17.7029379 C87.3599952,17.468419 87.9254488,17.3485322 88.4965335,17.3506195 C89.0624969,17.3479036 89.6228344,17.4678639 90.1420041,17.7029379 C90.6534336,17.934396 91.1133666,18.2738341 91.4928267,18.6998669 C91.8933501,19.159002 92.2049762,19.6946004 92.4105417,20.2771637 C92.6425859,20.9371849 92.7570347,21.6358878 92.7482473,22.3388341 L92.7499359,22.4031237 Z" id="Shape" fill="#292D2D"></path>
                    <path d="M105.073658,14.8389686 C104.33334,15.4502269 103.723205,16.2156493 103.28213,17.0864623 L103.28213,14.6293669 C103.281664,14.3339883 103.051983,14.0947941 102.768818,14.0947945 L99.3647448,14.0947945 L99.3647448,30.6489246 L103.28213,30.6489246 L103.28213,24.3027491 C103.28213,23.2459339 103.407081,22.3168171 103.654451,21.5435806 C103.868773,20.8323626 104.225951,20.1769623 104.702182,19.6210576 C105.146711,19.1174487 105.695255,18.7259404 106.306284,18.4761744 C106.969413,18.2123242 107.674338,18.0814527 108.384018,18.0904368 L108.770691,18.0904368 L108.770691,13.7953635 L108.597617,13.7883181 C107.191073,13.7222672 106.004882,14.0789423 105.073658,14.8389686 Z" id="Path" fill="#292D2D"></path>
                    <path d="M124.256182,16.27976 C123.490047,15.4868736 122.582194,14.8585255 121.584087,14.4303334 C120.512295,13.974731 119.364346,13.7460155 118.20703,13.7574943 C117.048263,13.7462699 115.899373,13.9805657 114.829974,14.4461856 C112.828503,15.3144457 111.233618,16.9673699 110.388301,19.0494967 C109.955391,20.1095568 109.735296,21.2509037 109.741463,22.4031237 L109.741463,22.4638906 C109.736879,23.604036 109.951326,24.7335984 110.37226,25.7858132 C110.778691,26.8087243 111.376544,27.7368483 112.130862,28.5159192 C112.899929,29.3004304 113.806937,29.9227113 114.802113,30.348613 C116.964946,31.2512117 119.378746,31.2455308 121.537652,30.3327607 C123.547276,29.4712817 125.149195,27.816412 125.994522,25.728569 C126.425402,24.678981 126.645498,23.5484141 126.641228,22.4066464 L126.641228,22.3449989 C126.656961,20.0719993 125.796334,17.8877634 124.252805,16.2832828 L124.256182,16.27976 Z M122.72722,22.4638906 C122.730329,23.1155834 122.624624,23.7628635 122.414842,24.3767262 C122.216514,24.9590272 121.909473,25.4945305 121.51148,25.9522616 C121.111257,26.4069615 120.626716,26.7721848 120.087206,27.0258097 C119.495986,27.2974119 118.8555,27.4325963 118.209563,27.4221154 C117.582771,27.4287147 116.962056,27.2935084 116.390174,27.0258097 C115.846364,26.767107 115.358202,26.3965761 114.954925,25.9364093 C114.545172,25.4663405 114.223576,24.9202725 114.006817,24.3265274 C113.781124,23.7127136 113.666616,23.0605326 113.669111,22.4031237 L113.669111,22.3414761 C113.664371,21.6798808 113.770074,21.0224746 113.981489,20.3986975 C114.177159,19.8207349 114.483995,19.2905813 114.883163,18.8407756 C115.287538,18.3944775 115.772035,18.0354051 116.309125,17.7839604 C117.489117,17.2555389 118.82532,17.2555389 120.005313,17.7839604 C120.548455,18.041091 121.038057,18.4067034 121.446472,18.8601506 C121.857189,19.3229654 122.17878,19.8638304 122.393736,20.4532996 C122.621116,21.0773403 122.735619,21.7399452 122.731442,22.4075271 L122.72722,22.4638906 Z" id="Shape" fill="#292D2D"></path>
                    <path d="M170.488927,13.7883181 C169.079006,13.7222672 167.893659,14.0789423 166.962436,14.8389686 C166.221892,15.4499855 165.611714,16.2154617 165.170908,17.0864623 L165.170908,14.6293669 C165.170442,14.3339883 164.940761,14.0947941 164.657595,14.0947945 L161.254367,14.0947945 L161.254367,30.6489246 L165.172596,30.6489246 L165.172596,24.3027491 C165.172596,23.2459339 165.297547,22.3168171 165.544917,21.5435806 C165.759239,20.8323626 166.116417,20.1769623 166.592648,19.6210576 C167.036943,19.1171667 167.585554,18.7256108 168.19675,18.4761744 C168.859836,18.2121604 169.564791,18.0812834 170.274484,18.0904368 L170.661157,18.0904368 L170.661157,13.7953635 L170.488927,13.7883181 Z" id="Path" fill="#292D2D"></path>
                    <path d="M72.9519434,16.4321176 C72.3063173,15.60536 71.4924984,14.9387374 70.5694302,14.4805321 C69.6179446,14.0005618 68.4992947,13.7574943 67.2447183,13.7574943 C66.1667422,13.7447618 65.0988592,13.9751811 64.1141871,14.4329754 C63.1879861,14.8729438 62.3555278,15.5017594 61.6658213,16.2824021 C60.9680965,17.0809385 60.4235717,18.0115806 60.0617196,19.023957 C59.6780117,20.0939858 59.4848834,21.2281219 59.4918413,22.3705386 L59.4918413,22.4321861 C59.4790079,23.6271088 59.693658,24.812806 60.1233509,25.9205571 C60.9108277,27.9656674 62.4709349,29.5822358 64.436696,30.3900049 C65.4510976,30.8110072 66.5337567,31.0242006 67.6254814,31.0180637 C69.0776156,31.0180637 70.3457002,30.7325892 71.3951205,30.1698351 C71.9861053,29.8536712 72.9198614,29.054895 73.4331739,28.6004644 C73.6402344,28.4169095 73.6742874,28.0968268 73.5108462,27.8703812 L71.8780395,25.6079159 L71.7623753,25.728569 C71.2171637,26.2979808 70.5888238,26.7735849 69.9007731,27.137656 C69.2827718,27.4502972 68.5381309,27.6088194 67.6888012,27.6088194 C66.581971,27.6088194 65.6279526,27.2679965 64.8529182,26.5951575 C64.123474,25.9628297 63.6489976,25.0504459 63.4396201,23.8817844 L74.7797751,23.8817844 L74.7975047,23.7126939 C74.817767,23.5259899 74.8321195,23.3445699 74.8422507,23.1675534 C74.8523818,22.9905368 74.8575542,22.8152816 74.8575542,22.6505946 C74.8623079,21.5043683 74.7012071,20.363948 74.379594,19.2679051 C74.080436,18.2367459 73.5959383,17.2743728 72.9519434,16.4321176 Z M63.404161,21.0495195 C63.5730139,19.9257726 63.9900803,18.9984173 64.6334095,18.2894704 C65.3088208,17.546177 66.1801013,17.1692462 67.2185461,17.1692462 C67.7328405,17.1600376 68.2432066,17.2641727 68.7162706,17.4748419 C69.1460218,17.6742177 69.5304314,17.9662562 69.8442074,18.331743 C70.1699349,18.7164876 70.4272456,19.1587663 70.604045,19.6377905 C70.7725598,20.0915146 70.8887582,20.5645307 70.9501933,21.0468775 L63.404161,21.0495195 Z" id="Shape" fill="#292D2D"></path>
                    <path d="M48.3762606,20.4013395 C48.5785372,19.8271391 48.880793,19.2968738 49.2678035,18.8372529 C49.6461418,18.3946875 50.1053961,18.0353902 50.618626,17.7804377 C51.1534824,17.5147897 51.7392715,17.3795684 52.3316378,17.3850126 C53.1944756,17.3850126 53.9298297,17.5673133 54.5157489,17.9266305 C55.1234414,18.3028433 55.6811933,18.7605924 56.1747278,19.2881608 L56.3047445,19.4264274 L58.4407326,17.1366611 C58.5383963,17.032142 58.590844,16.8905123 58.5859013,16.7446479 C58.5809585,16.5987836 58.519055,16.4613702 58.4145604,16.3643053 C57.8463707,15.8358976 56.7944176,14.9067809 56.1046539,14.543941 C55.1134879,14.0216981 53.8555344,13.7574943 52.3662526,13.7574943 C49.0181173,13.7106125 45.9893491,15.823306 44.751835,19.0688716 C44.3414041,20.128159 44.132368,21.2605954 44.1362806,22.4031237 L44.1362806,22.4638906 C44.1314169,23.6019453 44.3405207,24.7299613 44.751835,25.7840518 C45.1456952,26.8024555 45.7277477,27.7300994 46.4648467,28.5141578 C47.2090306,29.2951603 48.0915993,29.9178909 49.0634916,30.3477323 C50.0990657,30.8029204 51.2129937,31.0321984 52.3367034,31.021452 C53.0427473,31.0294461 53.74723,30.9505201 54.4355438,30.7863106 C55.0276272,30.6402623 55.6019935,30.4248909 56.1477114,30.1442953 C56.6621445,29.8764567 57.1466015,29.5500891 57.5922472,29.1711446 C57.9040498,28.9000507 58.1998037,28.6094802 58.4778802,28.3010334 L58.5825689,28.1865451 L56.6703108,25.4643652 L56.5369171,25.3252178 L56.408589,25.4529163 C55.8829365,26.0081156 55.2883522,26.4873575 54.6407,26.8778556 C54.0345184,27.2371728 53.3185825,27.4194734 52.5123103,27.4194734 C51.8909621,27.4269842 51.2756204,27.2919934 50.7098065,27.0240483 C50.1755669,26.7668041 49.6957192,26.4012747 49.298197,25.9487388 C48.8963765,25.4852804 48.5846977,24.9448057 48.3804819,24.3573512 C48.160484,23.73063 48.0498282,23.0678848 48.0537517,22.4004817 L48.0537517,22.3388341 C48.0485016,21.678011 48.1577597,21.0216356 48.3762606,20.4013395 Z" id="Path" fill="#292D2D"></path>
                    <path d="M156.892899,16.4321176 C156.247094,15.6055498 155.433319,14.9389635 154.510385,14.4805321 C153.558055,14.0005618 152.44025,13.7574943 151.185673,13.7574943 C150.10769,13.7446784 149.03979,13.9751013 148.055142,14.4329754 C147.128815,14.8727167 146.296316,15.5015629 145.606776,16.2824021 C144.909052,17.0809385 144.364527,18.0115806 144.002675,19.023957 C143.618967,20.0939858 143.425839,21.2281219 143.432797,22.3705386 L143.432797,22.4321861 C143.420098,23.6270127 143.634446,24.812626 144.063462,25.9205571 C144.851642,27.9654882 146.411905,29.581902 148.377651,30.3900049 C149.394516,30.8114923 150.47986,31.0241082 151.574035,31.0161679 C153.025325,31.0161679 154.29341,30.7308278 155.343674,30.1680737 C155.934659,29.8519098 156.868415,29.0531336 157.380883,28.5987031 C157.588213,28.4153993 157.622639,28.0952885 157.4594,27.8686199 L155.826593,25.6061546 L155.706708,25.7268076 C155.16137,26.2964543 154.532715,26.7720813 153.844261,27.1358946 C153.22626,27.4485358 152.482463,27.6070581 151.632289,27.6070581 C150.526303,27.6070581 149.572285,27.2662352 148.796406,26.5933961 C148.067806,25.9610683 147.592486,25.0486845 147.383108,23.880023 L158.721575,23.880023 L158.739304,23.7109326 C158.759004,23.5242285 158.773919,23.342515 158.78405,23.165792 C158.794181,22.989069 158.799327,22.8167494 158.799327,22.6488332 C158.803441,21.5035227 158.642352,20.364077 158.321393,19.2687858 C158.021735,18.2373975 157.536977,17.2747775 156.892899,16.4321176 L156.892899,16.4321176 Z M147.341739,21.0495195 C147.510592,19.9257726 147.926814,18.9984173 148.570988,18.2894704 C149.246399,17.546177 150.116835,17.1692462 151.156124,17.1692462 C151.670153,17.1599497 152.180261,17.2640908 152.653004,17.4748419 C153.08302,17.6741803 153.467713,17.9662153 153.781785,18.331743 C154.107513,18.7164876 154.364824,19.1587663 154.541623,19.6377905 C154.710419,20.0914796 154.826901,20.5644957 154.888616,21.0468775 L147.341739,21.0495195 Z" id="Shape" fill="#292D2D"></path>
                    <path d="M143.811027,14.1115274 L139.207255,14.1115274 C139.064462,14.1115625 138.928093,14.1734385 138.830713,14.2823792 L132.81111,20.9913947 L132.81111,8.38358882 L128.894569,8.38358882 L128.894569,30.6647769 L132.296109,30.6647769 C132.579274,30.664291 132.808578,30.4247028 132.808577,30.1293238 L132.808577,25.9284832 L134.778246,23.7910744 L139.376108,30.6682996 L143.930068,30.6682996 L137.44612,20.9094915 L143.811027,14.1115274 Z" id="Path" fill="#292D2D"></path>
                </g>
            </g>
        </g>
    </g>
</svg>