<?xml version="1.0" encoding="UTF-8"?>
<svg width="19px" height="18px" viewBox="0 0 19 18" version="1.1" xmlns="http://www.w3.org/2000/svg" xmlns:xlink="http://www.w3.org/1999/xlink">
    <title>menu-team</title>
    <g id="Segment-pages" stroke="none" stroke-width="1" fill="none" fill-rule="evenodd">
        <g id="group_work-24px">
            <polygon id="Path" points="0 0 19 0 19 18 0 18"></polygon>
            <path d="M10,2 C5.584,2 2,5.36 2,9.5 C2,13.64 5.584,17 10,17 C14.416,17 18,13.64 18,9.5 C18,5.36 14.416,2 10,2 Z M6.8,13.625 C5.696,13.625 4.8,12.785 4.8,11.75 C4.8,10.715 5.696,9.875 6.8,9.875 C7.904,9.875 8.8,10.715 8.8,11.75 C8.8,12.785 7.904,13.625 6.8,13.625 Z M8,6.5 C8,5.465 8.896,4.625 10,4.625 C11.104,4.625 12,5.465 12,6.5 C12,7.535 11.104,8.375 10,8.375 C8.896,8.375 8,7.535 8,6.5 Z M13.2,13.625 C12.096,13.625 11.2,12.785 11.2,11.75 C11.2,10.715 12.096,9.875 13.2,9.875 C14.304,9.875 15.2,10.715 15.2,11.75 C15.2,12.785 14.304,13.625 13.2,13.625 Z" id="Shape" fill="#ABBDBD"></path>
        </g>
    </g>
</svg>