<?xml version="1.0" encoding="UTF-8"?>
<svg width="20px" height="20px" viewBox="0 0 20 20" version="1.1" xmlns="http://www.w3.org/2000/svg" xmlns:xlink="http://www.w3.org/1999/xlink">
    <title>text_snippet-24px</title>
    <g id="Segment-pages" stroke="none" stroke-width="1" fill="none" fill-rule="evenodd">
        <g id="text_snippet-24px">
            <rect id="Rectangle" x="0" y="0" width="20" height="20"></rect>
            <path d="M11.8083333,4.16666667 L15.8333333,8.19166667 L15.8333333,15.8333333 L4.16666667,15.8333333 L4.16666667,4.16666667 L11.8083333,4.16666667 L11.8083333,4.16666667 M11.8083333,2.5 L4.16666667,2.5 C3.25,2.5 2.5,3.25 2.5,4.16666667 L2.5,15.8333333 C2.5,16.75 3.25,17.5 4.16666667,17.5 L15.8333333,17.5 C16.75,17.5 17.5,16.75 17.5,15.8333333 L17.5,8.19166667 C17.5,7.75 17.325,7.325 17.0083333,7.01666667 L12.9833333,2.99166667 C12.675,2.675 12.25,2.5 11.8083333,2.5 L11.8083333,2.5 Z M5.83333333,12.5 L14.1666667,12.5 L14.1666667,14.1666667 L5.83333333,14.1666667 L5.83333333,12.5 Z M5.83333333,9.16666667 L14.1666667,9.16666667 L14.1666667,10.8333333 L5.83333333,10.8333333 L5.83333333,9.16666667 Z M5.83333333,5.83333333 L11.6666667,5.83333333 L11.6666667,7.5 L5.83333333,7.5 L5.83333333,5.83333333 Z" id="Shape" fill="#ABBDBD" fill-rule="nonzero"></path>
        </g>
    </g>
</svg>