<?xml version="1.0" encoding="UTF-8"?>
<svg width="19px" height="19px" viewBox="0 0 19 19" version="1.1" xmlns="http://www.w3.org/2000/svg" xmlns:xlink="http://www.w3.org/1999/xlink">
    <title>menu-jobs</title>
    <g id="Segment-pages" stroke="none" stroke-width="1" fill="none" fill-rule="evenodd">
        <g id="business_center-24px">
            <path d="M0,0 L19,0 L19,19 L0,19 L0,0 Z M7.91666667,3.95833333 L11.0833333,3.95833333 L11.0833333,5.54166667 L7.91666667,5.54166667 L7.91666667,3.95833333 Z M7.91666667,3.95833333 L11.0833333,3.95833333 L11.0833333,5.54166667 L7.91666667,5.54166667 L7.91666667,3.95833333 Z" id="Shape"></path>
            <path d="M8.4,12.1111111 L8.4,11.3333333 L2.808,11.3333333 L2.8,14.4444444 C2.8,15.3077778 3.512,16 4.4,16 L15.6,16 C16.488,16 17.2,15.3077778 17.2,14.4444444 L17.2,11.3333333 L11.6,11.3333333 L11.6,12.1111111 L8.4,12.1111111 Z M16.4,5.11111111 L13.192,5.11111111 L13.192,3.55555556 L11.592,2 L8.392,2 L6.792,3.55555556 L6.792,5.11111111 L3.6,5.11111111 C2.72,5.11111111 2,5.81111111 2,6.66666667 L2,9 C2,9.86333333 2.712,10.5555556 3.6,10.5555556 L8.4,10.5555556 L8.4,9 L11.6,9 L11.6,10.5555556 L16.4,10.5555556 C17.28,10.5555556 18,9.85555556 18,9 L18,6.66666667 C18,5.81111111 17.28,5.11111111 16.4,5.11111111 Z M11.6,5.11111111 L8.4,5.11111111 L8.4,3.55555556 L11.6,3.55555556 L11.6,5.11111111 Z" id="Shape" fill="#ABBDBD" fill-rule="nonzero"></path>
        </g>
    </g>
</svg>