<?xml version="1.0" encoding="UTF-8"?>
<svg width="15px" height="19px" viewBox="0 0 15 19" version="1.1" xmlns="http://www.w3.org/2000/svg" xmlns:xlink="http://www.w3.org/1999/xlink">
    <title>menu-company</title>
    <g id="Segment-pages" stroke="none" stroke-width="1" fill="none" fill-rule="evenodd">
        <g id="menu-company" fill="#ABBDBD">
            <path d="M9.76483816,4.34092777 L7.49709996,2.02166036 C7.43542207,1.95860491 7.43542207,1.85654306 7.49709996,1.79348761 L9.20514717,0.0472915871 C9.26682506,-0.0157638624 9.36665718,-0.0157638624 9.42833507,0.0472915871 L15,5.74251844 L9.40538516,11.4615011 C9.35632972,11.5116521 9.27715252,11.5116521 9.22809708,11.4615011 L7.47443692,9.66838005 C7.42538148,9.61822897 7.42538148,9.53699009 7.47443692,9.48683901 L9.77602624,7.13443082 L7.39755471,7.13443082 C6.17547189,7.12269958 4.97806022,7.59429568 4.12977409,8.46240792 C2.39791634,10.2320664 2.39791634,13.1120874 4.12891347,14.8811594 C5.85962372,16.6508179 8.67586482,16.6508179 10.4077226,14.8811594 C11.0752781,14.1981076 11.5047284,13.3352744 11.6516078,12.4000008 C11.7173019,11.9832482 12.0581081,11.6709038 12.4709197,11.6709038 L14.4391615,11.6709038 C14.4391615,13.6297287 13.6944369,15.4703612 12.3398183,16.8552349 C10.9410212,18.2852738 9.10388068,19 7.26788771,19 C5.43189473,19 3.53737948,18.2852738 2.13972983,16.8552349 C-0.656430097,13.9980898 -0.740771025,9.34606405 2.05567578,6.48745258 C3.5712306,4.96590992 5.14272584,4.30192138 7.26846146,4.30192138 L9.76483816,4.34092777 Z" id="Fill-1"></path>
        </g>
    </g>
</svg>