<?xml version="1.0" encoding="UTF-8"?>
<svg width="43px" height="33px" viewBox="0 0 43 33" version="1.1" xmlns="http://www.w3.org/2000/svg" xmlns:xlink="http://www.w3.org/1999/xlink">
    <title>quote-bottom</title>
    <g id="Blog" stroke="none" stroke-width="1" fill="none" fill-rule="evenodd">
        <g id="Single" transform="translate(-1072.000000, -2038.000000)" fill="#168757" fill-rule="nonzero">
            <g id="quote-bottom" transform="translate(1093.528000, 2054.344000) scale(-1, -1) translate(-1093.528000, -2054.344000) translate(1072.304000, 2038.384000)">
                <path d="M18.144,0 C9.408,2.352 0,8.064 0,18.144 C0,26.768 7.168,31.92 12.88,31.92 L12.992,31.92 C16.016,31.92 19.376,29.792 19.376,26.656 C19.376,23.968 18.256,22.736 17.808,22.624 C12.992,21.728 9.744,18.592 9.744,14.448 C9.744,10.192 13.44,6.72 19.6,3.808 L18.144,0 Z M40.88,0 C32.144,2.352 22.736,8.064 22.736,18.144 C22.736,26.768 30.016,31.92 35.616,31.92 L35.728,31.92 C38.864,31.92 42.112,29.792 42.112,26.656 C42.112,23.968 41.104,22.736 40.544,22.624 C35.728,21.728 32.592,18.592 32.592,14.448 C32.592,10.192 36.176,6.72 42.448,3.808 L40.88,0 Z" id="Shape"></path>
            </g>
        </g>
    </g>
</svg>